<?xml version="1.0" encoding="UTF-8"?>
<svg version="1.1" xmlns="http://www.w3.org/2000/svg" viewBox="0 0 2000 2000">
  <defs>
    <clipPath id="circle-clip">
      <circle cx="1000" cy="1000" r="1000" />
    </clipPath>
  </defs>
  <g clip-path="url(#circle-clip)">
    <path d="M0 0 C660 0 1320 0 2000 0 C2000 660 2000 1320 2000 2000 C1340 2000 680 2000 0 2000 C0 1340 0 680 0 0 Z" fill="#800000" />
    <path d="M870 382 C871.765 382.378 871.765 382.378 873.566 382.765 C940.309 397.396 1002.527 432.83 1047 485 C1047.544 485.638 1048.089 486.275 1048.649 486.932 C1090.418 536.232 1120.411 593.665 1134 657 C1134.209 657.969 1134.417 658.938 1134.632 659.937 C1136.709 669.774 1138.329 679.664 1139.688 689.625 C1139.807 690.482 1139.927 691.339 1140.05 692.222 C1142.043 707.776 1142.207 723.528 1142.188 739.188 C1142.187 740.455 1142.187 740.455 1142.187 741.748 C1142.166 755.59 1141.594 769.241 1140 783 C1139.903 783.915 1139.807 784.829 1139.708 785.771 C1132.603 852.831 1106.703 919.549 1067 974 C1066.269 975.012 1065.538 976.024 1064.785 977.066 C1058.954 984.985 1052.724 992.578 1046.487 1000.177 C1045.221 1001.729 1043.974 1003.297 1042.73 1004.867 C1036.268 1012.998 1029.092 1020.431 1021.941 1027.95 C1019.185 1030.86 1016.464 1033.801 1013.75 1036.75 C1013.269 1037.271 1012.789 1037.793 1012.293 1038.33 C1009.883 1040.946 1007.481 1043.569 1005.086 1046.199 C999.213 1052.631 993.21 1058.888 986.983 1064.98 C984.15 1067.77 981.446 1070.606 978.864 1073.631 C974.724 1078.385 970.309 1082.835 965.848 1087.285 C964.989 1088.145 964.13 1089.005 963.245 1089.891 C961.438 1091.698 959.63 1093.504 957.822 1095.309 C955.071 1098.054 952.325 1100.805 949.58 1103.557 C947.815 1105.321 946.05 1107.084 944.285 1112.848 C943.068 1114.068 943.068 1114.068 941.825 1115.313 C937.601 1119.521 933.309 1123.579 928.771 1127.449 C925.694 1130.143 922.858 1133.077 920 1136 C915.836 1140.259 911.575 1144.295 907.066 1148.188 C903.451 1151.359 899.985 1154.687 896.5 1158 C891.677 1162.586 886.81 1167.09 881.782 1171.45 C879.551 1173.39 877.369 1175.381 875.188 1177.375 C870.817 1181.324 866.297 1185.046 861.719 1188.75 C859.079 1190.935 856.533 1193.192 854 1195.5 C849.753 1199.365 845.37 1203.014 840.906 1206.625 C837.796 1209.167 834.741 1211.766 831.688 1214.375 C826.416 1218.879 821.011 1223.186 815.493 1227.384 C812.795 1229.462 810.908 1231.138 809 1234 C808.526 1239.779 808.964 1242.913 812 1248 C814.46 1249.756 814.46 1249.756 817.434 1250.938 C818.544 1251.433 819.654 1251.928 820.798 1252.438 C821.999 1252.954 823.2 1253.469 824.438 1254 C826.988 1255.133 829.533 1256.28 832.078 1257.426 C832.732 1257.718 833.385 1258.01 834.059 1258.31 C851.542 1266.141 868.793 1274.769 885 1285 C885.798 1285.504 886.597 1286.008 887.419 1286.527 C909.356 1300.45 930.583 1315.627 950.242 1332.641 C952.715 1334.756 955.237 1336.761 957.813 1338.75 C963.201 1343.01 968.145 1347.726 973.116 1352.458 C976.27 1355.458 979.442 1358.398 982.754 1361.223 C988.958 1366.604 994.615 1372.586 1000.356 1378.452 C1007.229 1385.464 1014.274 1391.912 1022 1398 C1023.17 1398.963 1024.339 1399.929 1025.504 1400.898 C1043.383 1415.375 1062.866 1425.779 1085 1432 C1085.628 1432.18 1086.255 1432.359 1086.902 1432.544 C1115.289 1438.71 1144.605 1426.082 1169 1413 C1170.145 1412.386 1171.289 1411.773 1172.469 1411.141 C1191.754 1400.436 1210.338 1387.619 1226.387 1372.461 C1228.644 1370.336 1230.946 1368.313 1233.313 1366.313 C1236.566 1363.487 1239.375 1360.44 1242.16 1357.156 C1244.183 1354.786 1246.274 1352.489 1248.375 1350.188 C1255.103 1342.72 1261.357 1334.888 1267.5 1326.938 C1267.934 1326.377 1268.367 1325.816 1268.814 1325.239 C1272.035 1321.039 1273.125 1319.01 1273.129 1313.736 C1273.133 1312.626 1273.136 1311.517 1273.139 1310.374 C1273.137 1309.153 1273.135 1307.933 1273.133 1306.676 C1273.134 1305.392 1273.135 1304.108 1273.136 1302.785 C1273.137 1300.028 1273.135 1297.271 1273.13 1294.514 C1273.124 1290.485 1273.13 1286.457 1273.137 1282.428 C1273.139 1270.234 1273.075 1258.045 1273.77 1245.854 C1273.748 1244.976 1273.726 1244.098 1273.703 1243.194 C1273.681 1242.294 1273.658 1241.394 1273.635 1240.466 C1272.95 1213.011 1272.884 1185.57 1272.943 1158.107 C1272.954 1152.222 1272.96 1146.337 1272.967 1140.452 C1272.979 1129.179 1272.995 1117.905 1273.013 1106.631 C1273.042 1088.739 1273.06 1070.846 1273.074 1052.953 C1273.077 1049.119 1273.08 1045.285 1273.084 1041.451 C1273.084 1040.688 1273.085 1039.924 1273.086 1039.137 C1273.087 1037.59 1273.088 1036.043 1273.09 1034.496 C1273.091 1032.943 1273.092 1031.391 1273.093 1029.838 C1273.109 1011.631 1273.126 993.424 1273.144 975.218 C1273.145 974.423 1273.146 973.629 1273.147 972.811 C1273.173 947.012 1273.21 921.213 1273.251 895.415 C1273.293 868.762 1273.322 842.109 1273.335 815.456 C1273.336 811.684 1273.338 807.913 1273.341 804.141 C1273.341 803.399 1273.341 802.657 1273.342 801.892 C1273.349 790.034 1273.37 778.175 1273.397 766.317 C1273.424 754.386 1273.437 742.455 1273.434 730.525 C1273.434 724.082 1273.44 717.64 1273.463 711.197 C1276.361 650.519 1276.361 650.519 1254 597 C1249.405 593.15 1244.873 590.865 1239.125 589.25 C1238.396 589.037 1237.667 588.825 1236.916 588.606 C1231.573 587.158 1226.458 586.61 1220.938 586.438 C1209.377 586.058 1209.377 586.058 1205 582 C1200.983 577.092 1200.356 571.741 1200.621 565.543 C1201.616 558.867 1206.916 554.877 1212 551 C1214.576 549.437 1217.241 548.14 1219.969 546.863 C1221.092 546.322 1221.092 546.322 1222.238 545.769 C1224.654 544.607 1227.077 543.459 1229.5 542.313 C1231.185 541.505 1232.87 540.697 1234.555 539.888 C1238.648 537.924 1242.747 535.971 1246.848 534.023 C1249.746 532.645 1252.639 531.259 1255.531 529.871 C1259.133 528.144 1262.737 526.421 1266.344 524.703 C1273.074 521.493 1279.786 518.245 1286.5 515 C1297.105 509.874 1307.723 504.776 1318.352 499.699 C1334.082 492.185 1349.79 484.623 1365.487 477.038 C1374.4 472.731 1383.325 468.448 1392.258 464.183 C1400.016 460.477 1407.759 456.741 1415.5 453 C1426.105 447.875 1436.723 442.776 1447.352 437.699 C1461.84 430.778 1476.31 423.82 1490.767 416.835 C1508.883 408.083 1527.009 399.363 1545.25 390.875 C1546.178 390.442 1546.178 390.442 1547.125 390.001 C1548.879 389.184 1550.635 388.369 1552.391 387.555 C1553.402 387.085 1554.413 386.616 1555.454 386.132 C1559.441 384.359 1562.534 383.815 1566.875 383.75 C1567.904 383.724 1568.932 383.698 1569.992 383.672 C1574.604 384.175 1577.136 386.037 1580.188 389.438 C1583.87 394.643 1584.959 398.654 1584 405 C1580.529 414.811 1569.281 422.21 1561.438 428.5 C1536.133 449.013 1517.934 478.575 1507 509 C1506.377 510.671 1506.377 510.671 1505.742 512.375 C1489.565 557.957 1485.382 609.81 1483.106 657.815 C1483.033 659.323 1482.957 660.831 1482.879 662.339 C1482.077 677.953 1481.855 693.523 1481.866 709.155 C1481.864 711.717 1481.862 714.279 1481.859 716.84 C1481.854 722.366 1481.853 727.892 1481.854 733.418 C1481.855 741.636 1481.851 749.854 1481.846 758.073 C1481.836 773.608 1481.834 789.144 1481.833 804.679 C1481.832 816.679 1481.83 828.679 1481.827 840.678 C1481.826 844.142 1481.825 847.606 1481.825 851.07 C1481.824 852.362 1481.824 852.362 1481.824 853.68 C1481.818 877.874 1481.814 902.069 1481.814 926.263 C1481.814 927.174 1481.814 928.084 1481.814 929.022 C1481.814 933.636 1481.814 938.25 1481.815 942.864 C1481.815 943.78 1481.815 944.697 1481.815 945.641 C1481.815 947.494 1481.815 949.346 1481.815 951.199 C1481.815 980.037 1481.808 1008.874 1481.794 1037.711 C1481.779 1070.162 1481.77 1102.614 1481.771 1135.065 C1481.771 1138.529 1481.771 1141.992 1481.771 1145.455 C1481.771 1146.308 1481.771 1147.161 1481.771 1148.039 C1481.771 1161.724 1481.765 1175.408 1481.756 1189.092 C1481.748 1202.854 1481.747 1216.615 1481.753 1230.377 C1481.757 1238.538 1481.755 1246.698 1481.746 1254.859 C1481.739 1260.972 1481.743 1267.084 1481.75 1273.197 C1481.752 1275.655 1481.75 1278.113 1481.745 1280.571 C1481.704 1299.806 1482.267 1319 1486.313 1337.875 C1486.531 1338.92 1486.75 1339.966 1486.975 1341.043 C1490.707 1358.383 1495.936 1375.738 1507.75 1389.398 C1509 1391 1509 1391 1509 1393 C1509.578 1393.262 1510.155 1393.523 1510.75 1393.793 C1513.134 1395.072 1514.945 1396.557 1517 1398.313 C1531.384 1409.72 1549.892 1409.506 1567.363 1407.609 C1581.878 1405.258 1595.852 1399.524 1609.059 1393.222 C1624.302 1385.963 1624.302 1385.963 1633 1388 C1637.864 1390.085 1640.202 1392.995 1642.309 1397.719 C1643.937 1403.09 1643.72 1408.092 1641.75 1413.313 C1638.508 1418.292 1634.955 1422.017 1630.465 1425.855 C1627.461 1428.469 1624.543 1431.167 1621.625 1433.875 C1616.961 1438.198 1612.263 1442.478 1607.527 1446.723 C1604.669 1449.298 1601.833 1451.897 1599 1454.5 C1594.547 1458.592 1590.063 1462.648 1585.563 1466.688 C1582.694 1469.276 1579.845 1471.886 1577 1474.5 C1572.547 1478.592 1568.063 1482.648 1563.563 1486.688 C1560.694 1489.276 1557.845 1491.886 1555 1494.5 C1548.9 1500.103 1542.744 1505.642 1536.578 1511.172 C1531.511 1515.722 1526.476 1520.306 1521.461 1524.914 C1517.519 1528.532 1513.545 1532.113 1509.563 1535.688 C1506.694 1538.276 1503.845 1540.886 1501 1543.5 C1496.545 1547.594 1492.061 1551.653 1487.555 1555.691 C1485.233 1557.789 1482.934 1559.909 1480.64 1562.037 C1478.11 1564.376 1475.559 1566.692 1473 1569 C1472.497 1569.456 1471.994 1569.912 1471.475 1570.382 C1459.784 1580.885 1450.683 1585.085 1434.961 1584.398 C1398.088 1581.871 1359.346 1554.675 1335 1528 C1331.155 1523.47 1327.553 1518.76 1324 1514 C1323.363 1513.158 1322.726 1512.316 1322.07 1511.449 C1302.505 1484.626 1290.488 1451.416 1284.73 1418.969 C1284.514 1417.753 1284.298 1416.537 1284.075 1415.285 C1283.659 1412.896 1283.258 1410.504 1282.874 1408.11 C1281.646 1400.9 1280.55 1395.878 1274.688 1391.125 C1271.055 1389.605 1268.919 1389.402 1265 1390 C1256.136 1394.786 1249.146 1403.563 1242.68 1411.102 C1241.018 1412.98 1239.289 1414.743 1237.5 1416.5 C1234.511 1419.443 1231.753 1422.524 1229.016 1425.699 C1226.082 1429.047 1223.059 1432.312 1220.039 1435.581 C1217.54 1438.294 1215.11 1441.041 1212.75 1443.875 C1207.624 1449.786 1201.683 1454.943 1195.927 1460.226 C1194.117 1461.893 1192.318 1463.57 1190.523 1465.254 C1184.764 1470.645 1178.902 1475.782 1172.746 1480.723 C1169.737 1483.218 1166.861 1485.838 1164 1488.5 C1159.44 1492.738 1154.738 1496.735 1149.891 1500.641 C1146.67 1503.269 1143.521 1505.97 1140.375 1508.688 C1133.051 1514.999 1125.599 1521.147 1118.113 1527.265 C1116.088 1528.928 1114.076 1530.604 1112.066 1532.285 C1096.401 1545.319 1079.646 1556.815 1062 1567 C1060.963 1567.601 1060.963 1567.601 1059.905 1568.214 C1027.492 1586.768 990.893 1596.025 954 1588 C953.119 1587.812 952.238 1587.624 951.331 1587.43 C904.206 1577.128 854.515 1555.74 818.082 1524.617 C815.253 1522.205 812.384 1519.846 809.5 1517.5 C802.052 1511.432 794.732 1505.213 787.449 1498.949 C786.564 1498.188 786.564 1498.188 785.661 1497.411 C784.471 1496.388 783.282 1495.364 782.093 1494.341 C778.588 1491.332 775.037 1488.395 771.438 1485.5 C766.716 1481.673 762.278 1477.604 757.847 1473.45 C754.4 1470.237 750.866 1467.201 747.188 1464.25 C743.149 1461.008 739.483 1457.593 735.875 1453.883 C733.463 1451.461 730.902 1449.255 728.309 1447.031 C726.001 1445.001 723.759 1442.905 721.519 1440.794 C689.708 1410.927 655.717 1397.931 612.209 1398.894 C605.71 1399.115 599.401 1399.803 593.003 1401.003 C591.753 1401.236 590.502 1401.47 589.214 1401.71 C582.425 1403.106 575.899 1405 569.347 1407.265 C568.167 1407.672 566.987 1408.079 565.772 1408.499 C563.439 1409.316 561.113 1410.15 558.795 1411.005 C550.523 1413.927 541.927 1416.152 533.566 1412.503 C529.1 1408.146 525.777 1403.916 525.378 1397.503 C525.952 1388.701 532.812 1382.6 539.003 1377.003 C542.046 1374.689 545.22 1372.622 548.441 1370.566 C550.303 1369.349 552.165 1368.132 554.026 1366.913 C554.999 1366.279 555.972 1365.645 556.975 1364.992 C562.211 1361.553 567.388 1358.029 572.566 1354.503 C573.618 1353.787 574.67 1353.071 575.755 1352.333 C584.795 1346.168 593.774 1339.919 602.717 1333.614 C604.938 1332.049 607.162 1330.486 609.386 1328.925 C624.466 1318.325 639.381 1307.504 654.202 1296.546 C657.426 1294.163 660.658 1291.791 663.898 1289.429 C673.194 1282.638 682.294 1275.674 691.235 1268.423 C693.574 1266.544 695.943 1264.705 698.312 1262.865 C705.484 1257.292 712.4 1251.465 719.257 1245.51 C720.985 1244.019 722.724 1242.542 724.468 1241.069 C732.598 1234.194 740.42 1227.043 748.16 1219.732 C749.885 1218.114 751.624 1216.512 753.37 1214.917 C761.967 1207.041 770.251 1198.862 778.503 1190.628 C779.07 1190.064 779.637 1189.5 780.22 1188.918 C786.368 1182.793 792.378 1176.618 798.003 1170.003 C799.457 1168.395 800.915 1166.791 802.378 1165.191 C807.109 1159.941 811.574 1154.507 816.003 1149.003 C816.917 1147.882 817.831 1146.761 818.745 1145.64 C869.544 1083.108 912.329 1004.83 927.003 925.003 C927.26 923.643 927.26 923.643 927.522 922.256 C932.259 896.92 933.412 871.741 933.378 846.003 C933.378 844.656 933.379 843.308 933.379 841.961 C933.368 816.014 930.879 791.462 926.003 766.003 C925.812 764.981 925.621 763.958 925.424 762.905 C914.661 705.668 887.926 650.416 848.269 607.48 C847.026 606.121 845.791 604.755 844.594 603.355 C839.601 597.521 834.252 592.066 828.825 586.64 C827.264 585.077 825.712 583.506 824.159 581.935 C817.765 575.505 811.121 569.637 804.003 564.003 C802.782 562.991 801.564 561.976 800.351 560.956 C777.223 541.789 750.28 527.051 722.003 517.003 C721.355 516.768 720.707 516.533 720.039 516.292 C711.144 513.12 702.014 510.973 692.815 508.878 C691.766 508.636 690.717 508.394 689.636 508.145 C670.437 503.921 651.761 502.455 632.128 502.565 C630.385 502.571 630.385 502.571 628.608 502.576 C573.087 502.809 517.04 515.432 476.003 555.003 C475.224 555.718 474.446 556.434 473.644 557.171 C449.046 580.417 432.344 615.773 421.003 647.003 C420.634 648.017 420.634 648.017 420.258 649.051 C406.497 687.859 406.492 733.434 423.765 770.991 C441.702 805.904 478.089 830.488 514.526 842.89 C523.767 845.849 532.857 848.018 542.419 849.604 C595.263 858.403 646.465 878.064 686.003 915.003 C687.223 916.142 687.223 916.142 688.468 917.304 C704.281 932.567 715.855 951.134 725.003 971.003 C725.486 972.033 725.97 973.063 726.468 974.124 C738.201 1001.549 735.798 1032.44 724.981 1059.619 C715.424 1082.917 701.095 1103.081 684.14 1121.648 C682.303 1123.673 680.523 1125.731 678.753 1127.816 C653.802 1156.431 653.802 1156.431 640.749 1158.331 C634.7 1158.737 631.215 1157.617 626.632 1153.636 C623.215 1150.211 61.855 1147.734 621.706 1142.913 C621.771 1137.579 623.516 1133.523 625.753 1128.753 C626.493 1127.091 627.229 1125.427 627.96 1123.761 C628.491 1122.551 628.491 1122.551 629.033 1121.316 C635.337 1106.284 637.878 1089.592 632.003 1074.003 C622.937 1054.284 605.396 1044.55 586.003 1037.003 C579.49 1034.825 572.933 1032.89 566.25 1031 C550.375 1026.125 534.5 1021.25 520 1014 C518.918 1013.501 517.837 1013.002 516.723 1012.488 C503.876 1006.512 491.052 1000.48 479 993 C478.371 992.612 477.742 992.224 477.093 991.824 C460.612 981.604 444.952 970.205 430.467 957.304 C429.16 956.142 427.839 954.996 426.516 953.852 C412.448 941.53 399.761 928.307 389 913 C388.594 912.428 388.188 911.856 387.769 911.266 C344.943 850.188 338.323 768.503 350.731 696.686 C361.073 638.944 385.706 585.944 422 540 C422.688 539.117 423.377 538.234 424.086 537.324 C428.083 532.245 432.265 527.385 436.629 522.617 C437.909 521.204 439.184 519.785 440.422 518.335 C445.411 512.507 450.756 507.058 456.178 501.637 C457.739 500.074 459.291 498.503 460.844 496.932 C466.504 491.241 472.27 485.941 478.573 480.96 C481.022 478.982 483.327 476.901 485.625 474.75 C492.688 468.333 500.357 462.698 508 457 C508.707 456.469 509.413 455.937 510.141 455.39 C554.835 421.862 605.489 398.637 659.625 385.313 C660.78 385.027 661.935 384.741 663.125 384.446 C726.96 369.151 796.25 372.213 860 386 Z" fill="#FFFFFF" />
  </g>
</svg>
