<?xml version="1.0" encoding="UTF-8"?>
<svg version="1.1" xmlns="http://www.w3.org/2000/svg" width="2000" height="2000">
<path d="M0 0 C660 0 1320 0 2000 0 C2000 660 2000 1320 2000 2000 C1340 2000 680 2000 0 2000 C0 1340 0 680 0 0 Z " fill="#C51818" transform="translate(0,0)"/>
<path d="M0 0 C1.76512939 0.37850098 1.76512939 0.37850098 3.56591797 0.76464844 C70.30913087 15.39561936 132.52684296 50.82956578 177 103 C177.54430664 103.63752197 178.08861328 104.27504395 178.64941406 104.93188477 C220.41841589 154.2324919 250.41057657 211.66459262 264 275 C264.20850586 275.96905273 264.41701172 276.93810547 264.63183594 277.93652344 C266.70868482 287.77441299 268.32858481 297.66351728 269.6875 307.625 C269.80706055 308.48206543 269.92662109 309.33913086 270.04980469 310.22216797 C272.04277479 325.77599983 272.20674617 341.52772897 272.1875 357.1875 C272.18709213 358.45484985 272.18709213 358.45484985 272.18667603 359.74780273 C272.16632013 373.58981255 271.59388833 387.2411768 270 401 C269.90348145 401.91458984 269.80696289 402.82917969 269.70751953 403.77148438 C262.60255822 470.83111922 236.70319075 537.54851453 197 592 C196.26910156 593.01191406 195.53820313 594.02382813 194.78515625 595.06640625 C188.95435614 602.98490694 182.72413368 610.57812872 176.48681641 618.17675781 C175.22091709 619.72909543 173.97366496 621.29660916 172.73046875 622.8671875 C166.26799395 630.99779633 159.09177668 638.43066558 151.94091797 645.95019531 C149.18534468 648.86035799 146.46366533 651.80079703 143.75 654.75 C143.26926025 655.27134521 142.78852051 655.79269043 142.29321289 656.32983398 C139.88291218 658.94585723 137.48062462 661.56889697 135.0859375 664.19921875 C129.21318642 670.63118699 123.20952976 676.88826837 116.98291016 682.98022461 C114.14957471 685.76977138 111.44568163 688.60601259 108.86425781 691.63134766 C104.72390073 696.38507081 100.30931479 700.83459657 95.84765625 705.28515625 C94.98869247 706.14507675 94.1297287 707.00499725 93.24473572 707.89097595 C91.43822985 709.69815861 89.63047538 711.50409392 87.8215332 713.30883789 C85.0706319 716.05438393 82.32510779 718.80522546 79.58007812 721.55664062 C77.81542468 723.3206332 76.05046103 725.0843155 74.28515625 726.84765625 C73.06760399 728.06824486 73.06760399 728.06824486 71.82545471 729.31349182 C67.60076305 733.52105854 63.30897341 737.5792039 58.77146912 741.44871521 C55.69421843 744.14347976 52.85807479 747.07667236 50 750 C45.83645966 754.25859834 41.57523547 758.29548557 37.06640625 762.1875 C33.45118556 765.35850643 29.98452221 768.68684773 26.5 772 C21.67694848 776.58585226 16.81027752 781.08990459 11.78173828 785.45019531 C9.55134958 787.39024841 7.36921987 789.38050303 5.1875 791.375 C0.81714316 795.32371445 -3.70303079 799.0462721 -8.28125 802.75 C-10.92147729 804.93501569 -13.4672972 807.19171391 -16 809.5 C-20.24651686 813.36533345 -24.6301311 817.01398246 -29.09375 820.625 C-32.20391312 823.16663868 -35.25937683 825.76553235 -38.3125 828.375 C-43.58422352 832.87882665 -48.98874957 837.18611097 -54.50708008 841.38427734 C-57.20501297 843.46212553 -59.09168779 845.13753169 -61 848 C-61.47367774 853.77886841 -61.03625482 856.91278402 -58 862 C-55.53976969 863.75560665 -55.53976969 863.75560665 -52.56640625 864.9375 C-51.45628174 865.4327417 -50.34615723 865.9279834 -49.20239258 866.43823242 C-48.00122803 866.95361572 -46.80006348 867.46899902 -45.5625 868 C-43.0115751 869.13293346 -40.46719517 870.2803225 -37.921875 871.42578125 C-37.26822464 871.71769852 -36.61457428 872.00961578 -35.94111633 872.31037903 C-18.45750712 880.14115585 -1.20673289 888.76872377 15 899 C15.79841309 899.5038623 16.59682617 900.00772461 17.41943359 900.52685547 C39.35587504 914.44990858 60.583054 929.62692428 80.2421875 946.640625 C82.71519641 948.75634367 85.23738579 950.76129794 87.8125 952.75 C93.20108529 957.00971636 98.14497416 961.72605025 103.11645508 966.45800781 C106.27021977 969.45769004 109.44154157 972.39846992 112.75390625 975.22265625 C118.95752455 980.60360768 124.61476977 986.58628907 130.35571289 992.45166016 C137.22907106 999.46368655 144.27359097 1005.91243203 152 1012 C153.17039175 1012.96320918 154.33874749 1013.9289047 155.50390625 1014.8984375 C173.38288379 1029.3751575 192.86564983 1039.77873085 215 1046 C215.62753174 1046.17958252 216.25506348 1046.35916504 216.90161133 1046.54418945 C245.28888151 1052.7104528 274.60474027 1040.08189301 299 1027 C300.1446875 1026.38640625 301.289375 1025.7728125 302.46875 1025.140625 C321.7540529 1014.43639724 340.33794925 1001.61931519 356.38671875 986.4609375 C358.64358265 984.33563966 360.94568404 982.31275364 363.3125 980.3125 C366.56623294 977.48724218 369.37522968 974.44006364 372.16015625 971.15625 C374.1826773 968.78590685 376.27413848 966.48861695 378.375 964.1875 C385.10291455 956.71962868 391.35672507 948.88833454 397.5 940.9375 C397.93368896 940.37699951 398.36737793 939.81649902 398.81420898 939.23901367 C402.03549037 935.03939326 403.12508205 933.00962833 403.12939453 927.7355957 C403.13254669 926.6261409 403.13569885 925.5166861 403.13894653 924.37361145 C403.1369223 923.15332748 403.13489807 921.93304352 403.1328125 920.67578125 C403.13376923 919.39172897 403.13472595 918.1076767 403.13571167 916.78471375 C403.13719486 914.02793198 403.13502987 911.27118233 403.13037109 908.5144043 C403.12386498 904.48549166 403.13020231 900.4566478 403.13671875 896.42773438 C403.13876586 884.23357157 403.07524335 872.0445142 402.77003956 859.85368252 C402.74807353 858.97604508 402.7261075 858.09840765 402.70347584 857.19417514 C402.68092269 856.29385001 402.65836954 855.39352488 402.63513297 854.46591717 C401.94983344 827.01057835 401.88371058 799.5695731 401.94257057 772.10716188 C401.95405887 766.22223284 401.96036752 760.33729864 401.96675082 754.45236234 C401.9790635 743.17873293 401.99480525 731.90511192 402.01301279 720.63149059 C402.04183497 702.73867802 402.05970025 684.84586608 402.07414533 666.9530367 C402.07725685 663.11914498 402.08047303 659.28525335 402.08368748 655.45136172 C402.0843275 654.68766195 402.08496752 653.92396219 402.08562694 653.13712002 C402.0869242 651.59000368 402.08822239 650.04288734 402.08952148 648.49577101 C402.09082392 646.94330198 402.09212339 645.39083295 402.0934199 643.83836392 C402.10863389 625.63141731 402.12572673 607.4244728 402.14428711 589.2175293 C402.14509303 588.42330966 402.14589895 587.62909002 402.1467293 586.81080313 C402.17298604 561.01208189 402.20969785 535.21338591 402.25065581 509.41468429 C402.29289194 482.76187917 402.32156977 456.10908875 402.33456795 429.45625275 C402.33642012 425.68443206 402.3384401 421.91261148 402.34057045 418.14079094 C402.34098664 417.39878328 402.34140283 416.65677562 402.34183164 415.89228289 C402.3489039 404.0336926 402.37024724 392.17517043 402.39736693 380.31661082 C402.42438607 368.38597486 402.43670084 356.4553941 402.43449231 344.52472717 C402.43391901 338.08204011 402.43962865 331.6395333 402.46336365 325.19688606 C405.36148829 264.51893408 405.36148829 264.51893408 383 211 C378.40481533 207.15038182 373.87264911 204.86469029 368.125 203.25 C367.39611572 203.03738525 366.66723145 202.82477051 365.91625977 202.60571289 C360.57259934 201.15834037 355.45818811 200.61046078 349.9375 200.4375 C338.37650811 200.05800213 338.37650811 200.05800213 334 196 C329.98303883 191.09166704 329.3560592 185.74135745 329.62109375 179.54296875 C330.61577576 172.86731936 335.9159156 168.87710393 341 165 C343.57633732 163.437473 346.24146395 162.14025005 348.96875 160.86328125 C350.09198669 160.32156532 350.09198669 160.32156532 351.23791504 159.76890564 C353.65390963 158.60665353 356.0767286 157.45949123 358.5 156.3125 C360.18535621 155.50519216 361.87024914 154.69691649 363.5546875 153.88769531 C367.64822557 151.92381123 371.74707317 149.97134928 375.84814453 148.02325439 C378.74553201 146.6454832 381.6386659 145.25891668 384.53125 143.87109375 C388.13318185 142.14370692 391.73742232 140.42131442 395.34375 138.703125 C402.07396557 135.49251284 408.78644193 132.24524221 415.5 129 C426.10516204 123.87443675 436.72303678 118.7761798 447.3515625 113.69921875 C463.08221236 106.1848041 478.7898704 98.62282368 494.4866333 91.03793335 C503.40017467 86.73127065 512.32450009 82.44782006 521.25830078 78.18334961 C529.01609193 74.47735971 536.75917958 70.74125359 544.5 67 C555.10524386 61.8746052 565.72303592 56.77618021 576.3515625 51.69921875 C590.83967869 44.77835321 605.30986043 37.82027565 619.76705933 30.83508301 C637.88255597 22.08337086 656.0090229 13.36265146 674.25 4.875 C675.17814011 4.44234329 675.17814011 4.44234329 676.12503052 4.00094604 C677.87938052 3.18370335 679.63497687 2.36913774 681.390625 1.5546875 C682.40157227 1.08530762 683.41251953 0.61592773 684.45410156 0.13232422 C688.44061698 -1.64073471 691.53448094 -2.18505458 695.875 -2.25 C696.90367188 -2.27578125 697.93234375 -2.3015625 698.9921875 -2.328125 C703.60375913 -1.82504446 706.13555766 0.03676425 709.1875 3.4375 C712.86950654 8.64309545 713.95927819 12.65400583 713 19 C709.52931875 28.81097606 698.28067545 36.20970577 690.4375 42.5 C665.13265821 63.01253316 646.93411293 92.57464228 636 123 C635.37738281 124.670625 635.37738281 124.670625 634.7421875 126.375 C618.5646948 171.95686623 614.38241183 223.81047177 612.10576997 271.81463731 C612.03277065 273.32291038 611.95717685 274.83105933 611.87947007 276.33909719 C611.07723127 291.95256051 610.85529807 307.52334314 610.86628723 323.15541077 C610.86441444 325.71695836 610.86211189 328.27850568 610.85942191 330.84005255 C610.85431917 336.3661705 610.85284166 341.89227973 610.85387802 347.41839981 C610.85541539 355.63645063 610.85121409 363.85449191 610.8460034 372.07254087 C610.83637683 387.60817441 610.83352097 403.14380463 610.83294634 418.6794408 C610.8324854 430.67908555 610.83041986 442.67872901 610.82724571 454.67837334 C610.82634808 458.14215563 610.82545826 461.60593792 610.82457083 465.06972021 C610.82423926 466.36162968 610.82423926 466.36162968 610.82390099 467.67963833 C610.81775494 491.87410529 610.81379963 516.06857181 610.81424427 540.26303959 C610.81425985 541.17353978 610.81427543 542.08403997 610.81429148 543.02213107 C610.81437458 547.63614743 610.81447362 552.25016379 610.81457619 556.86418016 C610.81459613 557.78042259 610.81461608 558.69666503 610.81463663 559.64067238 C610.81467706 561.49353099 610.81471886 563.34638959 610.81476202 565.1992482 C610.81537498 594.03656438 610.807861 622.87386882 610.79418945 651.71118164 C610.77881062 684.16246858 610.77022422 716.61374781 610.77115268 749.06503862 C610.7712273 752.52850656 610.77127601 755.99197449 610.77130699 759.45544243 C610.77131865 760.30814291 610.7713303 761.1608434 610.77134231 762.03938329 C610.771373 775.72371198 610.7650048 789.40803041 610.75637473 803.09235606 C610.74787562 816.85392322 610.74692602 830.61547545 610.75348405 844.37704379 C610.75716388 852.53761219 610.75539439 860.69813507 610.74554171 868.85869859 C610.73878869 874.97158097 610.74263695 881.08441552 610.75041493 887.19729572 C610.75194334 889.65526094 610.75015891 892.11323117 610.74455485 894.57119048 C610.70363503 913.80639306 611.26729646 933.00006419 615.3125 951.875 C615.53123779 952.92034912 615.74997559 953.96569824 615.9753418 955.04272461 C619.70669703 972.38302409 624.93573572 989.73819443 636.75 1003.3984375 C638 1005 638 1005 638 1007 C638.5775 1007.26167969 639.155 1007.52335937 639.75 1007.79296875 C642.13448 1009.07214292 643.94487228 1010.55707841 646 1012.3125 C660.38446391 1023.72004671 678.89166169 1023.50636564 696.36328125 1021.609375 C710.87799771 1019.25808137 724.85155446 1013.5240115 738.05908203 1007.22192383 C753.30240166 999.96285487 753.30240166 999.96285487 762 1002 C766.8639015 1004.08452921 769.20214002 1006.99465294 771.30859375 1011.71875 C772.93658452 1017.09019979 772.71984313 1022.0924157 770.75 1027.3125 C767.50785539 1032.2915078 763.95511081 1036.01741925 759.46484375 1039.85546875 C756.46107035 1042.46889442 753.54298708 1045.16659211 750.625 1047.875 C745.96099909 1052.19792828 741.26305172 1056.47817245 736.52734375 1060.72265625 C733.66917797 1063.29809775 730.83289739 1065.89685764 728 1068.5 C723.54667383 1072.59169207 719.06340112 1076.64822977 714.5625 1080.6875 C711.69399591 1083.27615003 708.8452335 1085.88585146 706 1088.5 C701.54664513 1092.59166107 697.06340146 1096.64822946 692.5625 1100.6875 C689.69399555 1103.27615036 686.84527019 1105.88589108 684 1108.5 C677.90012856 1114.10303176 671.74438837 1119.64212914 665.578125 1125.171875 C660.51127991 1129.72235371 655.47637512 1134.30605967 650.46142578 1138.91357422 C646.51936798 1142.53228476 642.54500503 1146.11345702 638.5625 1149.6875 C635.69399591 1152.27615003 632.8452335 1154.88585146 630 1157.5 C625.5445688 1161.59356877 621.06054186 1165.65341216 616.5546875 1169.69140625 C614.23337096 1171.78910973 611.93424438 1173.90899044 609.64038086 1176.03662109 C607.10991191 1178.37588818 604.55871943 1180.69170497 602 1183 C601.49678223 1183.45616699 600.99356445 1183.91233398 600.47509766 1184.38232422 C588.78440662 1194.88476875 579.68262984 1199.08496792 563.9609375 1198.3984375 C527.08795104 1195.87136043 488.34633791 1168.67511806 464 1142 C460.15507892 1137.47007932 456.55309998 1132.7602243 453 1128 C452.36320312 1127.15824219 451.72640625 1126.31648438 451.0703125 1125.44921875 C431.50547103 1098.62645222 419.48794783 1065.4160395 413.73046875 1032.96875 C413.51422852 1031.75300293 413.29798828 1030.53725586 413.07519531 1029.28466797 C412.65893241 1026.89577787 412.25783279 1024.50418178 411.87402344 1022.10986328 C410.64640582 1014.89999504 409.54972175 1009.87815277 403.6875 1005.125 C400.05525334 1003.60452465 397.91866833 1003.40223703 394 1004 C385.13566138 1008.78565521 378.14563427 1017.5629241 371.6796875 1025.1015625 C370.01795424 1026.97970753 368.28874475 1028.74305516 366.5 1030.5 C363.51106799 1033.44264324 360.75347702 1036.52355707 358.015625 1039.69921875 C355.08245245 1043.04735563 352.05945314 1046.31206918 349.0390625 1049.58129883 C346.53966126 1052.29367842 344.10966023 1055.04097509 341.75 1057.875 C336.62380537 1063.78606653 330.68324935 1068.94339709 324.92675781 1074.22607422 C323.11660763 1075.89264179 321.31784705 1077.57042196 319.5234375 1079.25390625 C313.76374106 1084.64464206 307.90222701 1089.78166686 301.74609375 1094.72265625 C298.73679636 1097.21827556 295.86081559 1099.83785854 293 1102.5 C288.4401199 1106.7377742 283.73779958 1110.7351872 278.890625 1114.640625 C275.67016585 1117.26921598 272.52070916 1119.97042914 269.375 1122.6875 C262.05092503 1128.99884336 254.59864272 1135.14710522 247.11279297 1141.26513672 C245.08806657 1142.9276865 243.07582405 1144.60415725 241.06640625 1146.28515625 C225.40144333 1159.31889493 208.64634482 1170.81480777 191 1181 C189.96311035 1181.60086426 189.96311035 1181.60086426 188.90527344 1182.21386719 C156.49235163 1200.76831464 119.89273323 1210.02493899 83 1202 C82.11924805 1201.81195801 81.23849609 1201.62391602 80.33105469 1201.43017578 C33.20579853 1191.128185 -6.48463144 1169.74011011 -42.91796875 1138.6171875 C-45.74683013 1136.20503476 -48.61575122 1133.84580002 -51.5 1131.5 C-58.94769697 1125.43190537 -66.26753861 1119.21332495 -73.55078125 1112.94921875 C-74.43588379 1112.18798706 -74.43588379 1112.18798706 -75.33886719 1111.41137695 C-76.52855219 1110.38804621 -77.7180058 1109.36444638 -78.90722656 1108.34057617 C-82.41203233 1105.3322032 -85.96250324 1102.3946273 -89.5625 1099.5 C-94.28401057 1095.67287249 -98.72217967 1091.60389892 -103.15332031 1087.45019531 C-106.60027857 1084.23727711 -110.13441737 1081.20060571 -113.8125 1078.25 C-117.8509891 1075.00750296 -121.51692551 1071.5927278 -125.125 1067.8828125 C-127.53658359 1065.46118064 -130.09845909 1063.25522027 -132.69140625 1061.03125 C-135.00190593 1058.99832304 -137.24414125 1056.90154768 -139.48364258 1054.79101562 C-171.29536057 1024.92405684 -205.28558078 1011.9284389 -248.79443359 1012.890625 C-255.29260929 1013.11234493 -261.60237158 1013.79957731 -268 1015 C-269.25039063 1015.23332031 -270.50078125 1015.46664063 -271.7890625 1015.70703125 C-278.57770257 1017.10316977 -285.1044686 1018.99684843 -291.65625 1021.26171875 C-292.83598389 1021.66898193 -294.01571777 1022.07624512 -295.23120117 1022.49584961 C-297.56351309 1023.31261192 -299.88967846 1024.14721391 -302.20825195 1025.00219727 C-310.47965653 1027.92399181 -319.07600327 1030.14865312 -327.4375 1026.5 C-331.90298286 1022.14343136 -335.22626517 1017.91298511 -335.625 1011.5 C-335.05125237 1002.69750344 -328.19100458 996.5970806 -322 991 C-318.9566647 988.68646121 -315.78343929 986.61914361 -312.5625 984.5625 C-310.69970195 983.34630541 -308.83775975 982.1287992 -306.9765625 980.91015625 C-306.00364258 980.27609863 -305.03072266 979.64204102 -304.02832031 978.98876953 C-298.79232734 975.55016918 -293.61493265 972.02592438 -288.4375 968.5 C-287.38506104 967.78376465 -286.33262207 967.0675293 -285.24829102 966.32958984 C-276.20812445 960.16491879 -267.22924647 953.91579527 -258.28613281 947.61132812 C-256.06486726 946.04572019 -253.84128607 944.4834548 -251.6171875 942.921875 C-236.53740849 932.32187019 -221.62240918 921.50059251 -206.80078125 910.54296875 C-203.57667304 908.15993225 -200.34453321 905.78844612 -197.10546875 903.42578125 C-187.80944011 896.63489357 -178.70875801 889.6710102 -169.76757812 882.42041016 C-167.42899402 880.54114464 -165.06047023 878.70194162 -162.69067383 876.86230469 C-155.51861024 871.28924873 -148.60279687 865.4616999 -141.74560547 859.50732422 C-140.01812025 858.01564678 -138.27909785 856.53879474 -136.53515625 855.06640625 C-128.40530432 848.1909986 -120.58268814 841.0396327 -112.84277344 833.72949219 C-111.11801637 832.11076152 -109.37946667 830.50910094 -107.6328125 828.9140625 C-99.03582222 821.03790342 -90.75177798 812.85940884 -82.5 804.625 C-81.93324554 804.06083374 -81.36649109 803.49666748 -80.78256226 802.91540527 C-74.63522153 796.79023137 -68.62462719 790.61535099 -63 784 C-61.54554483 782.39231627 -60.08779105 780.78760285 -58.625 779.1875 C-53.89428498 773.93824117 -49.42916306 768.50441004 -45 763 C-44.08625558 761.87864698 -43.17217861 760.75756489 -42.2578125 759.63671875 C8.54008054 697.10505937 51.32610123 618.82725416 66 539 C66.25692627 537.6402002 66.25692627 537.6402002 66.51904297 536.25292969 C71.25613854 510.91697058 72.40922165 485.73848065 72.375 460 C72.37541136 458.65255736 72.37586956 457.30511473 72.37637329 455.95767212 C72.36513941 430.01125346 69.87588161 405.45929026 65 380 C64.80897705 378.97769287 64.6179541 377.95538574 64.42114258 376.90209961 C53.65830213 319.66494484 26.92306598 264.41276829 -12.734375 221.4765625 C-13.97723379 220.11798927 -15.2124091 218.75163739 -16.40917969 217.35229492 C-21.40226694 211.51825875 -26.75093697 206.06291552 -32.17773438 200.63696289 C-33.73860327 199.07391266 -35.29127888 197.50302635 -36.84375 195.93164062 C-43.2375792 189.50204432 -49.88191557 183.63355276 -57 178 C-58.22069179 176.98827617 -59.43858065 175.97315084 -60.65234375 174.953125 C-83.78015301 155.78631726 -110.72289334 141.04799396 -139 131 C-139.64807617 130.76522949 -140.29615234 130.53045898 -140.96386719 130.28857422 C-149.85907151 127.11701858 -158.98911081 124.97021378 -168.1875 122.875 C-169.23687744 122.63313965 -170.28625488 122.3912793 -171.36743164 122.14208984 C-190.56564965 117.91827923 -209.24217024 116.45165945 -228.875 116.5625 C-230.61763626 116.56756058 -230.61763626 116.56756058 -232.39547729 116.57272339 C-287.91603142 116.80575674 -343.96337166 129.42896553 -385 169 C-385.77859375 169.71542969 -386.5571875 170.43085937 -387.359375 171.16796875 C-411.95742269 194.41399609 -428.65901862 229.76976519 -440 261 C-440.36859131 262.01392822 -440.36859131 262.01392822 -440.74462891 263.04833984 C-454.50603972 301.85617003 -454.51073696 347.43130638 -437.23828125 384.98828125 C-419.30126819 419.90064933 -382.91355427 444.4852149 -346.4765625 456.88671875 C-337.2360634 459.84575498 -328.14599111 462.01511926 -318.58447266 463.60107422 C-265.73964255 472.39999852 -214.53799545 492.06074603 -175 529 C-173.77990234 530.13888672 -173.77990234 530.13888672 -172.53515625 531.30078125 C-156.72195691 546.56439072 -145.14796754 565.13084758 -136 585 C-135.51660156 586.02996094 -135.03320312 587.05992187 -134.53515625 588.12109375 C-122.80196083 615.54610068 -125.20514849 646.44042333 -136.02197266 673.61572266 C-145.57881443 696.91380474 -159.90834358 717.07757913 -176.86328125 735.64453125 C-178.70059208 737.66993971 -180.48040688 739.72831255 -182.25 741.8125 C-207.20124204 770.42791045 -207.20124204 770.42791045 -220.25390625 772.328125 C-226.30296166 772.73447376 -229.7878316 771.61423215 -234.37109375 767.6328125 C-237.7876552 764.20805786 -239.14814063 761.73055097 -239.296875 756.91015625 C-239.23242374 751.576277 -237.48717513 747.52020767 -235.25 742.75 C-234.50959371 741.08803631 -233.77391916 739.42395663 -233.04296875 737.7578125 C-232.51195557 736.54786621 -232.51195557 736.54786621 -231.97021484 735.31347656 C-225.66592025 720.28089086 -223.12513851 703.5893646 -229 688 C-238.06601294 668.28142187 -255.60663363 658.54659372 -275 651 C-281.05432523 648.83702949 -287.19178227 646.9255163 -293.32617188 645.00436401 C-309.17497863 640.02482626 -324.89474173 634.96996633 -340 628 C-341.08152344 627.50113281 -342.16304687 627.00226562 -343.27734375 626.48828125 C-356.12446848 620.511884 -368.94772297 614.47971617 -381 607 C-381.62922363 606.61199219 -382.25844727 606.22398437 -382.90673828 605.82421875 C-399.38780788 595.60413623 -415.04756827 584.2046997 -429.53320312 571.30371094 C-430.84042443 570.14183314 -432.16148634 568.99556999 -433.484375 567.8515625 C-447.55216734 555.53044236 -460.23906916 542.30672697 -471 527 C-471.40621582 526.42781738 -471.81243164 525.85563477 -472.23095703 525.26611328 C-515.05665488 464.18803378 -521.67672495 382.50295881 -509.26855469 310.68603516 C-498.926516 252.9442915 -474.29363535 199.94361531 -438 154 C-437.31164062 153.11699219 -436.62328125 152.23398437 -435.9140625 151.32421875 C-431.91681396 146.24471122 -427.73493901 141.38524527 -423.37109375 136.6171875 C-422.09072278 135.20392794 -420.81617352 133.78477851 -419.57763672 132.3347168 C-414.58910632 126.50674855 -409.243724 121.05757733 -403.82226562 115.63696289 C-402.26139673 114.07391266 -400.70872112 112.50302635 -399.15625 110.93164062 C-393.49647793 105.24094757 -387.73018046 99.94148879 -381.42724609 94.9597168 C-378.97751548 92.98184638 -376.67346427 90.90070586 -374.375 88.75 C-367.311954 82.33310016 -359.64349876 76.6982722 -352 71 C-351.29343262 70.46858398 -350.58686523 69.93716797 -349.85888672 69.38964844 C-305.16518754 35.86162729 -254.51140812 12.63731179 -200.375 -0.6875 C-199.22 -0.97334961 -198.065 -1.25919922 -196.875 -1.55371094 C-133.04001936 -16.84900265 -63.75016459 -13.78692824 0 0 Z " fill="#FEFEFE" transform="translate(870,382)"/>
</svg>
